<svg width="33" height="32" viewBox="0 0 33 32" fill="none" xmlns="http://www.w3.org/2000/svg">
<path d="M29.0527 20.5043C29.1775 20.3892 29.3427 20.3279 29.5124 20.3339C29.6821 20.3399 29.8425 20.4126 29.9589 20.5363L31.2588 21.9264C31.3739 22.0506 31.4352 22.2154 31.429 22.3846C31.4229 22.5539 31.35 22.7138 31.2261 22.8294L22.5016 30.9248C22.3768 31.0398 22.2115 31.1009 22.0418 31.0948C21.8721 31.0887 21.7117 31.0159 21.5954 30.8921L20.2975 29.5001C20.1823 29.3759 20.1211 29.2111 20.1272 29.0419C20.1333 28.8726 20.2063 28.7127 20.3301 28.5971L29.0527 20.5043ZM12.6367 10.1747C12.7616 10.0596 12.9268 9.99854 13.0965 10.0047C13.2662 10.0108 13.4266 10.0836 13.5429 10.2073L21.7157 18.9561C21.8309 19.0803 21.8921 19.2451 21.886 19.4144C21.8799 19.5837 21.8069 19.7436 21.6831 19.8592L19.4296 21.9475C19.3048 22.0625 19.1395 22.1236 18.9698 22.1175C18.8001 22.1114 18.6397 22.0386 18.5234 21.9148L10.3506 13.168C10.2934 13.1066 10.2489 13.0346 10.2196 12.956C10.1903 12.8774 10.1768 12.7938 10.1799 12.71C10.1829 12.6262 10.2024 12.5438 10.2373 12.4675C10.2722 12.3913 10.3218 12.3226 10.3832 12.2656L12.6367 10.1747ZM26.2706 17.5276C26.5285 17.2883 26.9362 17.303 27.1768 17.5603L28.476 18.9523C28.5912 19.0765 28.6524 19.2413 28.6463 19.4105C28.6402 19.5798 28.5672 19.7398 28.4434 19.8553L19.7189 27.9462C19.5941 28.0613 19.4289 28.1225 19.2592 28.1165C19.0895 28.1106 18.9291 28.0378 18.8127 27.9142L17.5141 26.5248C17.399 26.4006 17.3377 26.2358 17.3438 26.0665C17.35 25.8972 17.4229 25.7373 17.5468 25.6217L26.2706 17.5276ZM12.9496 4.04733C13.0746 3.93237 13.2399 3.87137 13.4096 3.87761C13.5793 3.88384 13.7397 3.95679 13.8559 4.0806L15.1551 5.47196C15.2705 5.59612 15.332 5.761 15.326 5.93042C15.32 6.09985 15.247 6.25997 15.1231 6.37564L6.40053 14.4678C6.27579 14.5831 6.11056 14.6444 5.94082 14.6384C5.77108 14.6324 5.61058 14.5596 5.49429 14.4358L4.19189 13.0406C4.13473 12.9792 4.09022 12.9072 4.06092 12.8286C4.03162 12.75 4.0181 12.6664 4.02114 12.5826C4.02417 12.4988 4.04369 12.4164 4.07859 12.3402C4.11349 12.2639 4.16308 12.1953 4.22453 12.1382L12.9496 4.04733ZM10.172 1.07516C10.2972 0.960398 10.4625 0.899487 10.6322 0.905594C10.8019 0.911701 10.9624 0.984337 11.0789 1.1078L12.3775 2.4966C12.4347 2.55793 12.4792 2.62993 12.5086 2.70849C12.5379 2.78705 12.5515 2.87063 12.5486 2.95444C12.5456 3.03825 12.5261 3.12065 12.4913 3.19693C12.4564 3.27322 12.4069 3.34188 12.3455 3.399L3.61909 11.4899C3.49402 11.6047 3.32878 11.6658 3.15909 11.6598C2.98939 11.6538 2.82887 11.5813 2.71221 11.4579L1.41109 10.0678C1.35383 10.0066 1.30922 9.93463 1.27983 9.85612C1.25044 9.77761 1.23684 9.69406 1.23981 9.61028C1.24278 9.5265 1.26227 9.44413 1.29715 9.36789C1.33204 9.29166 1.38163 9.22306 1.44309 9.16604L10.172 1.07516Z" fill="#3269D2"/>
</svg>
